<svg width="48" height="40" viewBox="0 0 48 40" fill="none" xmlns="http://www.w3.org/2000/svg">
<g opacity="0.5">
<path d="M6 0.5H42C45.0376 0.5 47.5 2.96243 47.5 6V34C47.5 37.0376 45.0376 39.5 42 39.5H6C2.96243 39.5 0.5 37.0376 0.5 34V6C0.5 2.96243 2.96243 0.5 6 0.5Z" fill="white"/>
<path d="M6 0.5H42C45.0376 0.5 47.5 2.96243 47.5 6V34C47.5 37.0376 45.0376 39.5 42 39.5H6C2.96243 39.5 0.5 37.0376 0.5 34V6C0.5 2.96243 2.96243 0.5 6 0.5Z" stroke="#E4E4E7"/>
<path d="M24.0004 13.4062C27.099 13.4064 28.7071 15.5689 29.432 16.8467L30.0287 17.8994H27.1996C27.1814 17.8992 27.1664 17.8845 27.1664 17.8662C27.1664 17.848 27.1814 17.8332 27.1996 17.833H29.8871L29.4935 17.0967C28.8513 15.8965 27.2585 13.4729 24.0004 13.4727C20.0204 13.4727 17.473 16.735 17.473 20C17.4732 23.2649 20.0206 26.5264 24.0004 26.5264C25.9154 26.5263 27.4976 25.7714 28.6244 24.625C29.2297 24.0091 29.7043 23.2799 30.0277 22.4941C30.0347 22.4773 30.0537 22.4687 30.0707 22.4756C30.0876 22.4826 30.0962 22.5025 30.0892 22.5195C29.7627 23.3131 29.2838 24.0496 28.6722 24.6719C27.5334 25.8305 25.9341 26.5927 24.0004 26.5928C19.979 26.5928 17.4068 23.2967 17.4066 20C17.4066 16.7032 19.9788 13.4062 24.0004 13.4062ZM30.3998 14.6328C30.4181 14.6328 30.4328 14.6478 30.433 14.666V17.8662C30.433 17.8846 30.4182 17.8994 30.3998 17.8994H30.3666V14.666C30.3667 14.6478 30.3816 14.6329 30.3998 14.6328Z" fill="#09090B" stroke="#18181B"/>
</g>
</svg>
