<svg width="48" height="48" viewBox="0 0 48 48" fill="none" xmlns="http://www.w3.org/2000/svg">
<path d="M0 24C0 10.7452 10.7452 0 24 0C37.2548 0 48 10.7452 48 24C48 37.2548 37.2548 48 24 48C10.7452 48 0 37.2548 0 24Z" fill="#18181B"/>
<path d="M18 30L19.2667 26.2C18.6648 24.9965 18.5107 23.6181 18.8322 22.3115C19.1537 21.0048 19.9296 19.8552 21.0212 19.0684C22.1127 18.2815 23.4487 17.9088 24.79 18.0169C26.1312 18.1249 27.3902 18.7068 28.3417 19.6583C29.2932 20.6098 29.8751 21.8688 29.9832 23.2101C30.0912 24.5513 29.7185 25.8873 28.9316 26.9788C28.1448 28.0704 26.9952 28.8463 25.6885 29.1678C24.3819 29.4893 23.0035 29.3353 21.8 28.7333L18 30Z" stroke="#FAFAFA" stroke-linecap="round" stroke-linejoin="round"/>
</svg>
